<mxfile host="app.diagrams.net" modified="2021-01-24T16:08:02.553Z" agent="5.0 (X11; Linux x86_64) AppleWebKit/537.36 (KHTML, like Gecko) Chrome/87.0.4280.66 Safari/537.36" etag="0au-Hoiv366eFcX43m8A" version="14.2.6" type="github">
  <diagram id="aMq6Zq6RJG1cN4NrK3JE" name="Page-1">
    <mxGraphModel dx="813" dy="429" grid="1" gridSize="10" guides="1" tooltips="1" connect="1" arrows="1" fold="1" page="1" pageScale="1" pageWidth="850" pageHeight="1100" math="0" shadow="0">
      <root>
        <mxCell id="0" />
        <mxCell id="1" parent="0" />
        <mxCell id="kvTNnoCJ3w9LI98lbVsP-5" style="edgeStyle=orthogonalEdgeStyle;rounded=0;orthogonalLoop=1;jettySize=auto;html=1;exitX=0.5;exitY=1;exitDx=0;exitDy=0;entryX=0.5;entryY=1;entryDx=0;entryDy=0;" edge="1" parent="1" source="kvTNnoCJ3w9LI98lbVsP-1" target="kvTNnoCJ3w9LI98lbVsP-2">
          <mxGeometry relative="1" as="geometry" />
        </mxCell>
        <mxCell id="kvTNnoCJ3w9LI98lbVsP-1" value="&lt;font style=&quot;font-size: 13px&quot;&gt;&lt;b&gt;仿真垃圾巡检清洁功能&lt;/b&gt;&lt;/font&gt;" style="rounded=1;whiteSpace=wrap;html=1;fillColor=#ffe6cc;strokeColor=#d79b00;" vertex="1" parent="1">
          <mxGeometry x="290" y="230" width="170" height="90" as="geometry" />
        </mxCell>
        <mxCell id="kvTNnoCJ3w9LI98lbVsP-4" style="edgeStyle=orthogonalEdgeStyle;rounded=0;orthogonalLoop=1;jettySize=auto;html=1;exitX=0.5;exitY=0;exitDx=0;exitDy=0;entryX=0.5;entryY=0;entryDx=0;entryDy=0;" edge="1" parent="1" source="kvTNnoCJ3w9LI98lbVsP-2" target="kvTNnoCJ3w9LI98lbVsP-1">
          <mxGeometry relative="1" as="geometry" />
        </mxCell>
        <mxCell id="kvTNnoCJ3w9LI98lbVsP-2" value="&lt;b&gt;&lt;font style=&quot;font-size: 14px&quot;&gt;垃圾巡检决策规划&lt;/font&gt;&lt;/b&gt;" style="rounded=1;whiteSpace=wrap;html=1;fillColor=#fff2cc;strokeColor=#d6b656;" vertex="1" parent="1">
          <mxGeometry x="520" y="230" width="180" height="90" as="geometry" />
        </mxCell>
        <mxCell id="kvTNnoCJ3w9LI98lbVsP-7" value="" style="rounded=0;whiteSpace=wrap;html=1;fillColor=#f5f5f5;strokeColor=#666666;fontColor=#333333;" vertex="1" parent="1">
          <mxGeometry x="340" y="420" width="240" height="160" as="geometry" />
        </mxCell>
        <mxCell id="kvTNnoCJ3w9LI98lbVsP-8" value="" style="shape=image;html=1;verticalAlign=top;verticalLabelPosition=bottom;labelBackgroundColor=#ffffff;imageAspect=0;aspect=fixed;image=https://cdn3.iconfinder.com/data/icons/mix-and-miscellaneous/93/cross_handrawn_close-128.png" vertex="1" parent="1">
          <mxGeometry x="380" y="470" width="10" height="10" as="geometry" />
        </mxCell>
        <mxCell id="kvTNnoCJ3w9LI98lbVsP-9" value="" style="shape=image;html=1;verticalAlign=top;verticalLabelPosition=bottom;labelBackgroundColor=#ffffff;imageAspect=0;aspect=fixed;image=https://cdn3.iconfinder.com/data/icons/mix-and-miscellaneous/93/cross_handrawn_close-128.png" vertex="1" parent="1">
          <mxGeometry x="390" y="480" width="10" height="10" as="geometry" />
        </mxCell>
        <mxCell id="kvTNnoCJ3w9LI98lbVsP-10" value="" style="shape=image;html=1;verticalAlign=top;verticalLabelPosition=bottom;labelBackgroundColor=#ffffff;imageAspect=0;aspect=fixed;image=https://cdn3.iconfinder.com/data/icons/mix-and-miscellaneous/93/cross_handrawn_close-128.png" vertex="1" parent="1">
          <mxGeometry x="380" y="510" width="10" height="10" as="geometry" />
        </mxCell>
        <mxCell id="kvTNnoCJ3w9LI98lbVsP-11" value="" style="shape=image;html=1;verticalAlign=top;verticalLabelPosition=bottom;labelBackgroundColor=#ffffff;imageAspect=0;aspect=fixed;image=https://cdn3.iconfinder.com/data/icons/mix-and-miscellaneous/93/cross_handrawn_close-128.png" vertex="1" parent="1">
          <mxGeometry x="450" y="460" width="10" height="10" as="geometry" />
        </mxCell>
        <mxCell id="kvTNnoCJ3w9LI98lbVsP-12" value="" style="shape=image;html=1;verticalAlign=top;verticalLabelPosition=bottom;labelBackgroundColor=#ffffff;imageAspect=0;aspect=fixed;image=https://cdn3.iconfinder.com/data/icons/mix-and-miscellaneous/93/cross_handrawn_close-128.png" vertex="1" parent="1">
          <mxGeometry x="425" y="490" width="10" height="10" as="geometry" />
        </mxCell>
        <mxCell id="kvTNnoCJ3w9LI98lbVsP-13" value="" style="shape=image;html=1;verticalAlign=top;verticalLabelPosition=bottom;labelBackgroundColor=#ffffff;imageAspect=0;aspect=fixed;image=https://cdn3.iconfinder.com/data/icons/mix-and-miscellaneous/93/cross_handrawn_close-128.png" vertex="1" parent="1">
          <mxGeometry x="470" y="520" width="10" height="10" as="geometry" />
        </mxCell>
        <mxCell id="kvTNnoCJ3w9LI98lbVsP-14" value="" style="shape=image;html=1;verticalAlign=top;verticalLabelPosition=bottom;labelBackgroundColor=#ffffff;imageAspect=0;aspect=fixed;image=https://cdn3.iconfinder.com/data/icons/mix-and-miscellaneous/93/cross_handrawn_close-128.png" vertex="1" parent="1">
          <mxGeometry x="520" y="470" width="10" height="10" as="geometry" />
        </mxCell>
        <mxCell id="kvTNnoCJ3w9LI98lbVsP-15" value="" style="shape=image;html=1;verticalAlign=top;verticalLabelPosition=bottom;labelBackgroundColor=#ffffff;imageAspect=0;aspect=fixed;image=https://cdn3.iconfinder.com/data/icons/mix-and-miscellaneous/93/cross_handrawn_close-128.png" vertex="1" parent="1">
          <mxGeometry x="485" y="480" width="10" height="10" as="geometry" />
        </mxCell>
        <mxCell id="kvTNnoCJ3w9LI98lbVsP-17" value="" style="curved=1;endArrow=classic;html=1;dashed=1;strokeColor=#FF3333;" edge="1" parent="1">
          <mxGeometry width="50" height="50" relative="1" as="geometry">
            <mxPoint x="435" y="530" as="sourcePoint" />
            <mxPoint x="385" y="480" as="targetPoint" />
            <Array as="points">
              <mxPoint x="435" y="530" />
              <mxPoint x="385" y="480" />
            </Array>
          </mxGeometry>
        </mxCell>
        <mxCell id="kvTNnoCJ3w9LI98lbVsP-18" value="" style="curved=1;endArrow=classic;html=1;dashed=1;strokeColor=#FF3333;entryX=0.25;entryY=0;entryDx=0;entryDy=0;" edge="1" parent="1">
          <mxGeometry width="50" height="50" relative="1" as="geometry">
            <mxPoint x="490" y="545" as="sourcePoint" />
            <mxPoint x="520" y="465" as="targetPoint" />
            <Array as="points">
              <mxPoint x="490" y="550" />
              <mxPoint x="482.5" y="535" />
              <mxPoint x="450.5" y="545" />
              <mxPoint x="450" y="465" />
              <mxPoint x="482.5" y="445" />
              <mxPoint x="500.5" y="445" />
            </Array>
          </mxGeometry>
        </mxCell>
        <mxCell id="kvTNnoCJ3w9LI98lbVsP-6" value="" style="shape=image;html=1;verticalAlign=top;verticalLabelPosition=bottom;labelBackgroundColor=#ffffff;imageAspect=0;aspect=fixed;image=https://cdn0.iconfinder.com/data/icons/streamline-emoji-1/48/094-robot-face-3-128.png" vertex="1" parent="1">
          <mxGeometry x="510" y="510" width="70" height="70" as="geometry" />
        </mxCell>
      </root>
    </mxGraphModel>
  </diagram>
</mxfile>
